<svg xmlns="http://www.w3.org/2000/svg" xmlns:xlink="http://www.w3.org/1999/xlink" width="238.565" height="39.331" viewBox="0 0 238.565 39.331">
  <defs>
    <linearGradient id="linear-gradient" x1="1" y1="1" x2="0.062" y2="0.078" gradientUnits="objectBoundingBox">
      <stop offset="0" stop-color="#bfc6d8"/>
      <stop offset="1" stop-color="#d5d7e1"/>
    </linearGradient>
    <linearGradient id="linear-gradient-5" x1="1" y1="1" x2="0.062" y2="0.078" gradientUnits="objectBoundingBox">
      <stop offset="0" stop-color="#e7ebf2"/>
      <stop offset="1" stop-color="#d3d3e6"/>
    </linearGradient>
  </defs>
  <g id="Group_20926" data-name="Group 20926" transform="translate(-72.474 -76)">
    <g id="Layer_x0020_1" transform="translate(72.474 76)">
      <g id="_3079379564224">
        <g id="Group_2345" data-name="Group 2345" transform="translate(196.619)">
          <path id="Path_13736" data-name="Path 13736" d="M17930.246,344.879a20.86,20.86,0,0,0,9.93-2.335,17.627,17.627,0,0,0,0-31.21,22.263,22.263,0,0,0-19.85,0,17.617,17.617,0,0,0,0,31.21A20.838,20.838,0,0,0,17930.246,344.879Zm0-6.3a10.968,10.968,0,0,1-5.609-1.463,10.559,10.559,0,0,1-4-4.144,13.246,13.246,0,0,1,0-12.064,10.634,10.634,0,0,1,4-4.144,11.5,11.5,0,0,1,11.229,0,10.707,10.707,0,0,1,4,4.144,13.246,13.246,0,0,1,0,12.064,10.632,10.632,0,0,1-4,4.144A10.993,10.993,0,0,1,17930.246,338.579Z" transform="translate(-17907.549 -305.548)" fill="#fff" fill-rule="evenodd"/>
          <path id="Path_13737" data-name="Path 13737" d="M17621.246,35.879a20.835,20.835,0,0,0,9.922-2.335,17.229,17.229,0,0,0,9.326-15.6,17.2,17.2,0,0,0-9.326-15.6,22.239,22.239,0,0,0-19.838,0,17.19,17.19,0,0,0-9.33,15.6,17.223,17.223,0,0,0,9.33,15.6A20.806,20.806,0,0,0,17621.246,35.879Zm0-6.3a11.1,11.1,0,0,1-5.617-1.463,10.628,10.628,0,0,1-3.988-4.144,12.344,12.344,0,0,1-1.451-6.032,12.285,12.285,0,0,1,1.451-6.032,10.554,10.554,0,0,1,3.988-4.144,11.494,11.494,0,0,1,11.225,0,10.49,10.49,0,0,1,4,4.144,12.306,12.306,0,0,1,1.451,6.032,12.366,12.366,0,0,1-1.451,6.032,10.563,10.563,0,0,1-4,4.144A11.067,11.067,0,0,1,17621.246,29.579Z" transform="translate(-17602 0)" fill="#506477" fill-rule="evenodd"/>
          <path id="Path_13738" data-name="Path 13738" d="M17775.258,190.868a20.935,20.935,0,0,0,9.918-2.323,17.62,17.62,0,0,0,0-31.221,22.359,22.359,0,0,0-19.85,0,17.636,17.636,0,0,0,0,31.221A20.967,20.967,0,0,0,17775.258,190.868Zm0-6.289a11.014,11.014,0,0,1-5.619-1.474,10.7,10.7,0,0,1-4-4.133,13.3,13.3,0,0,1,0-12.075,10.7,10.7,0,0,1,4-4.133,11.422,11.422,0,0,1,11.227,0,10.623,10.623,0,0,1,4,4.133,13.269,13.269,0,0,1,0,12.075,10.623,10.623,0,0,1-4,4.133A10.967,10.967,0,0,1,17775.258,184.579Z" transform="translate(-17754.279 -153.269)" fill-rule="evenodd" fill="url(#linear-gradient)"/>
        </g>
        <g id="Group_2346" data-name="Group 2346" transform="translate(148.252 0.737)">
          <path id="Path_13739" data-name="Path 13739" d="M13298.753,409.4h9.428l-7.439-10.835,1.206-.581a11.53,11.53,0,0,0,4.849-4.222,11.692,11.692,0,0,0,1.687-6.334,11.843,11.843,0,0,0-1.81-6.579,11.637,11.637,0,0,0-5.172-4.3,19.92,19.92,0,0,0-8.177-1.553H13272v34.4h11.539v-9.752h8.557Zm1.541-21.972a6.084,6.084,0,0,1-2.032,4.837,8.468,8.468,0,0,1-5.574,1.664h-9.148V380.876h9.148a8.386,8.386,0,0,1,5.586,1.7A6.173,6.173,0,0,1,13300.294,387.433Z" transform="translate(-13272 -371.548)" fill="#fff" fill-rule="evenodd"/>
          <path id="Path_13740" data-name="Path 13740" d="M13298.127,102.136l-.9-12.567,1.263-.592a11.364,11.364,0,0,0,4.848-4.211,11.8,11.8,0,0,0-5.284-17.213,19.966,19.966,0,0,0-8.187-1.553H13272v37.856l1.73-1.72,6.346-11.483,11.394,1.72.626,1.731,5.484,8.031Zm-1.284-23.7a6.064,6.064,0,0,1-2.032,4.826,8.48,8.48,0,0,1-5.575,1.676h-9.159V71.876h9.159a8.382,8.382,0,0,1,5.585,1.7A6.156,6.156,0,0,1,13296.843,78.433Z" transform="translate(-13272 -66)" fill="#506477" fill-rule="evenodd"/>
          <path id="Path_13741" data-name="Path 13741" d="M13451.4,254.416h8.321l-7.438-10.846,1.206-.581a11.533,11.533,0,0,0,4.848-4.222,11.675,11.675,0,0,0,1.687-6.334,11.3,11.3,0,0,0-6.981-10.88,19.887,19.887,0,0,0-8.177-1.553H13427v34.416h8.077v-9.763h9.662Zm.436-21.983a6.113,6.113,0,0,1-2.021,4.837,8.49,8.49,0,0,1-5.574,1.664h-9.159V225.887h9.159a8.355,8.355,0,0,1,5.574,1.7A6.151,6.151,0,0,1,13451.832,232.433Z" transform="translate(-13425.27 -218.28)" fill-rule="evenodd" fill="url(#linear-gradient)"/>
        </g>
        <g id="Group_2347" data-name="Group 2347" transform="translate(96.4 0.737)">
          <path id="Path_13742" data-name="Path 13742" d="M8667,94.473h-17.358l5.741-8.266h-13.191L8630,103.856h37Zm-23.067-10.824h13.059L8669.04,66h-35.6v9.383h16.13Z" transform="translate(-8630 -66)" fill="#fff" fill-rule="evenodd"/>
          <path id="Path_13743" data-name="Path 13743" d="M8667,94.473h-17.358L8646.1,96.2l-2.435-4.133,8.075-4.144,3.642-1.72h-13.191L8630,103.856l3.642-1.72,31.623-5.931Zm-23.067-10.824,3.508-1.72,18.1-14.209L8669.04,66h-35.6v9.383l1.721-1.731,10.153-4.826,7.764,4.826-3.508,1.731Z" transform="translate(-8630 -66)" fill="#506477" fill-rule="evenodd"/>
          <path id="Path_13744" data-name="Path 13744" d="M8987.623,248.484h-19.168l5.641-8.277h-8.4l-9.7,14.209h31.623Zm-17.828-14.276h8.4l9.7-14.209H8957.52v5.931h17.918Z" transform="translate(-8952.358 -218.28)" fill-rule="evenodd" fill="url(#linear-gradient)"/>
        </g>
        <g id="Group_2348" data-name="Group 2348" transform="translate(48.926 0.737)">
          <path id="Path_13745" data-name="Path 13745" d="M4380,75.383h35.533V66H4380Zm0,28.473h35.533V94.473H4380Zm0-14.231h35.533V80.231H4380Z" transform="translate(-4380 -66)" fill="#fff" fill-rule="evenodd"/>
          <path id="Path_13746" data-name="Path 13746" d="M4380,75.383l1.731-1.731,32.07-5.931,1.731-1.72H4380Zm0,28.473,1.731-1.72L4413.8,96.2l1.731-1.731H4380Zm0-14.231,1.731-1.731,32.07-5.931,1.731-1.731H4380Z" transform="translate(-4380 -66)" fill="#506477" fill-rule="evenodd"/>
          <path id="Path_13747" data-name="Path 13747" d="M4535,225.931h32.07V220H4535Zm0,28.484h32.07v-5.931H4535Zm0-14.242h32.07v-5.931H4535Z" transform="translate(-4533.269 -218.28)" fill-rule="evenodd" fill="url(#linear-gradient)"/>
        </g>
        <g id="Group_2353" data-name="Group 2353" transform="translate(0 0.737)">
          <g id="Group_2351" data-name="Group 2351" transform="translate(11.997 14.309)">
            <g id="Group_2349" data-name="Group 2349" transform="translate(0 14.164)">
              <path id="Path_13748" data-name="Path 13748" d="M1074,2615v9.383h11.539V2615Z" transform="translate(-1074 -2615)" fill="#fff" fill-rule="evenodd"/>
              <path id="Path_13749" data-name="Path 13749" d="M1074,2615v9.383l1.731-1.72,8.076-5.932,1.731-1.731Z" transform="translate(-1074 -2615)" fill="#003d90" fill-rule="evenodd"/>
            </g>
            <g id="Group_2350" data-name="Group 2350">
              <path id="Path_13751" data-name="Path 13751" d="M1074,1347v9.383h11.539V1347Z" transform="translate(-1074 -1347)" fill="#fff" fill-rule="evenodd"/>
              <path id="Path_13752" data-name="Path 13752" d="M1074,1347v9.383l1.731-1.72,8.076-5.931,1.731-1.731Z" transform="translate(-1074 -1347)" fill="#2997ff" fill-rule="evenodd"/>
            </g>
          </g>
          <g id="Group_2352" data-name="Group 2352">
            <path id="Path_13754" data-name="Path 13754" d="M35.533,75.383V66H0v9.383Z" transform="translate(0 -66)" fill="#fff" fill-rule="evenodd"/>
            <path id="Path_13755" data-name="Path 13755" d="M33.8,67.72,35.533,66H0v9.383l1.731-1.731Z" transform="translate(0 -66)" fill="#506477" fill-rule="evenodd"/>
          </g>
        </g>
      </g>
    </g>
    <path id="Union_192" data-name="Union 192" d="M11.973,34.359v-5.9h8.087v5.9Zm0-14.162V14.3h8.087v5.9ZM0,5.882V0H32.068V5.882Z" transform="translate(74.213 78.499)" fill="url(#linear-gradient-5)"/>
  </g>
</svg>
