<svg xmlns="http://www.w3.org/2000/svg" xmlns:xlink="http://www.w3.org/1999/xlink" width="302.528" height="118.906" viewBox="0 0 302.528 118.906">
  <defs>
    <linearGradient id="linear-gradient" x1="-0.147" y1="-0.41" x2="1.202" y2="1.35" gradientUnits="objectBoundingBox">
      <stop offset="0" stop-color="#f8f8fc"/>
      <stop offset="1" stop-color="#e1e2e8"/>
    </linearGradient>
    <linearGradient id="linear-gradient-2" x1="1" y1="1" x2="0" gradientUnits="objectBoundingBox">
      <stop offset="0" stop-color="#929bb2"/>
      <stop offset="1" stop-color="#a5accc"/>
    </linearGradient>
  </defs>
  <g id="Pay_with_TEZRO" data-name="Pay with TEZRO" transform="translate(14165.518 -9042.518)">
    <g id="Pay-with-BitPay-CardGroup" transform="translate(-14165.518 9042)">
      <g id="Mark_Large_Card-Group-2020_Pay-with-BitPay-L" data-name="Mark/Large/Card-Group-2020/Pay-with-BitPay-L" transform="translate(0.517 0)">
        <g id="Button_payment_pay-btn-Copy-9" data-name="Button/payment/pay-btn-Copy-9">
          <path id="Контур_60945" data-name="Контур 60945" d="M296.919.517H5.609C3.8.517,3.141.834,2.478,1.5A6.189,6.189,0,0,0,1.04,4.2a20,20,0,0,0-.523,5.885v98.732A20,20,0,0,0,1.04,114.7a6.189,6.189,0,0,0,1.438,2.7c.662.666,1.325.983,3.131.983H296.919c1.806,0,2.469-.317,3.131-.983a6.189,6.189,0,0,0,1.438-2.7,20,20,0,0,0,.523-5.885V10.087a20,20,0,0,0-.523-5.885,6.189,6.189,0,0,0-1.438-2.7C299.387.834,298.725.517,296.919.517Z" transform="translate(-0.517 0.517)" fill="none" stroke="#c7cad9" stroke-width="1.034" fill-rule="evenodd"/>
          <g id="Logo_Paywith-Bitpay-vertical-white" data-name="Logo/Paywith-Bitpay-vertical-white" transform="translate(19.69 26.883)">
            <g id="Group-2" transform="translate(0)">
              <g id="Сгруппировать_21177" data-name="Сгруппировать 21177" transform="translate(0)">
                <g id="Pay-with-Clipped" transform="translate(27.95)">
                  <path id="Pay-with" d="M4.658.716a5.254,5.254,0,0,1,2.394.505,3.536,3.536,0,0,1,1.515,1.4,4.065,4.065,0,0,1,.515,2.066,4.21,4.21,0,0,1-.511,2.138,3.272,3.272,0,0,1-1.5,1.346,5.7,5.7,0,0,1-2.411.461H1.68v5.107H0V.716Zm0,6.52a2.8,2.8,0,0,0,2.074-.68A2.52,2.52,0,0,0,7.4,4.7a2.872,2.872,0,0,0-.29-1.292A2.194,2.194,0,0,0,6.2,2.473,3.081,3.081,0,0,0,4.658,2.12H1.68V7.236Zm13.016,4.391a6.649,6.649,0,0,0,.087,1.051,4.105,4.105,0,0,0,.242.917v.143H16.315a3.891,3.891,0,0,1-.225-1.011,3.723,3.723,0,0,1-1.165.863,3.4,3.4,0,0,1-1.494.326,3.51,3.51,0,0,1-1.658-.38A2.784,2.784,0,0,1,10.657,12.5a2.751,2.751,0,0,1-.394-1.449,2.906,2.906,0,0,1,.515-1.744,3.115,3.115,0,0,1,1.463-1.078,6.263,6.263,0,0,1,2.238-.362h1.576V7.1a1.877,1.877,0,0,0-.507-1.391,1.978,1.978,0,0,0-1.459-.505,2.468,2.468,0,0,0-1.039.21,1.763,1.763,0,0,0-.714.563,1.279,1.279,0,0,0-.255.765H10.462a2.342,2.342,0,0,1,.468-1.368A3.4,3.4,0,0,1,12.246,4.3a4.351,4.351,0,0,1,1.939-.416,4.3,4.3,0,0,1,1.823.362,2.747,2.747,0,0,1,1.225,1.091,3.385,3.385,0,0,1,.442,1.784Zm-4.009.859a2.651,2.651,0,0,0,1.035-.2,2.682,2.682,0,0,0,.827-.532,2.426,2.426,0,0,0,.528-.716v-2H14.739a4.087,4.087,0,0,0-2.121.452,1.471,1.471,0,0,0-.736,1.337,1.726,1.726,0,0,0,.208.85,1.5,1.5,0,0,0,.606.595A1.986,1.986,0,0,0,13.665,12.486ZM26.829,4.061,23.071,15.231a4.959,4.959,0,0,1-1,1.695,2.283,2.283,0,0,1-1.779.72,2.947,2.947,0,0,1-.472-.049,3.809,3.809,0,0,1-.437-.094V16.171q.1.018.216.031a1.989,1.989,0,0,0,.216.013,2.038,2.038,0,0,0,1.277-.353,2.5,2.5,0,0,0,.74-1.239l.355-.993-3.342-9.57h1.766l2.32,7.245,2.173-7.245Zm16.889,0L41,13.738H39.692L37.423,6.431l-2.216,7.307H33.9L31.181,4.061h1.61l1.836,7.182L36.8,4.061h1.307L40.315,11.4l1.8-7.343ZM45.989.537A.928.928,0,0,1,46.695.8a.946.946,0,0,1,.255.68.919.919,0,0,1-.255.666.936.936,0,0,1-.706.264.908.908,0,0,1-.7-.264.937.937,0,0,1-.247-.666A.965.965,0,0,1,45.292.8.9.9,0,0,1,45.989.537Zm-.823,13.2V4.061h1.619v9.677Zm7.83,0a4.018,4.018,0,0,1-1.238.179,2.1,2.1,0,0,1-1.571-.608,2.76,2.76,0,0,1-.593-1.977V5.322H47.888V4.061h1.706V1.708h1.619V4.061h1.749V5.322H51.213v6.019a1.2,1.2,0,0,0,.277.926,1.121,1.121,0,0,0,.753.237,2.8,2.8,0,0,0,.4-.031,2.944,2.944,0,0,0,.346-.067Zm5.882-9.856q3,0,3,3.515v6.341H60.264V7.379a2.325,2.325,0,0,0-.463-1.61,1.814,1.814,0,0,0-1.4-.5,2.258,2.258,0,0,0-1.338.42,2.932,2.932,0,0,0-.939,1.127v6.923H54.506V0h1.619V5.205a3.554,3.554,0,0,1,1.212-.979A3.449,3.449,0,0,1,58.878,3.882Z" fill="#97aaff"/>
                </g>
                <g id="Logo_Interface_bitpay-logo-white-_160x58_" data-name="Logo/Interface/bitpay-logo-white-(160x58)" transform="translate(0 20.712)">
                  <g id="Group" transform="translate(0 0)">
                    <path id="y_2_" d="M71.41,5.185H65.176L61.568,20.861l-.506,2.151c-.348.1-.7.2-1.044.261a9.863,9.863,0,0,1-1.994.2,4.406,4.406,0,0,1-1.9-.358,2,2,0,0,1-.981-1.01,3.325,3.325,0,0,1-.222-1.532,10.743,10.743,0,0,1,.316-1.89l1.9-8.148,1.234-5.41h-6.36l-2.88,12.515a23.852,23.852,0,0,0-.6,4.3,8.275,8.275,0,0,0,.6,3.618,5.224,5.224,0,0,0,2.31,2.477,9.367,9.367,0,0,0,4.588.913,16.423,16.423,0,0,0,3.576-.358c.032,0,.095-.033.127-.033h0a5.832,5.832,0,0,1-1.74,3.161,5.858,5.858,0,0,1-4.019,1.238,13.834,13.834,0,0,1-2.089-.13l-1.234,5.312A23.26,23.26,0,0,0,53.4,38.3a17.393,17.393,0,0,0,4.968-.652,10.147,10.147,0,0,0,3.671-2.021,11.938,11.938,0,0,0,2.563-3.389,20.062,20.062,0,0,0,1.646-4.856l4.3-18.642h0l.854-3.552Z" transform="translate(48.427 5.082)" fill="#fff" fill-rule="evenodd"/>
                    <path id="a_2_" d="M56.605,18.563a15.219,15.219,0,0,0-.348,4.921,20.069,20.069,0,0,0,1.392,5.443H51.637a7.977,7.977,0,0,1-.854-2.281,11.336,11.336,0,0,1-2.595,1.63,7.692,7.692,0,0,1-3.2.652,7.981,7.981,0,0,1-3.576-.75,6.8,6.8,0,0,1-2.437-2.021,8.166,8.166,0,0,1-1.361-2.966,14.976,14.976,0,0,1-.411-3.65,15.7,15.7,0,0,1,1.013-5.606,14.647,14.647,0,0,1,2.848-4.6,12.068,12.068,0,0,1,8.955-4.2h9.651L56.605,18.563Zm-4.4-7.985c-2.911,0-3.449,0-4.652.619A6.819,6.819,0,0,0,45.4,13.12a9.322,9.322,0,0,0-1.456,2.738,10.14,10.14,0,0,0-.538,3.226,6.944,6.944,0,0,0,.665,3.292,2.545,2.545,0,0,0,2.468,1.206,3.81,3.81,0,0,0,1.74-.391,6.067,6.067,0,0,0,1.645-1.3q.095-1.075.285-2.249c.127-.782.285-1.532.411-2.184l1.582-6.877Z" transform="translate(37.125 5.098)" fill="#fff" fill-rule="evenodd"/>
                    <path id="p_2_" d="M48.64,14.554a16.258,16.258,0,0,1-1.013,5.8,13.4,13.4,0,0,1-2.816,4.53,12.684,12.684,0,0,1-4.3,2.966,13.663,13.663,0,0,1-5.443,1.075,17.506,17.506,0,0,1-2.88-.261l-1.9,7.854H24.052L31.3,5.168h8.322a10.034,10.034,0,0,1,4.05.75,7.9,7.9,0,0,1,2.816,2.021,8.251,8.251,0,0,1,1.614,3,11.094,11.094,0,0,1,.538,3.618Zm-15.284,8.9a7.007,7.007,0,0,0,1.772.163A7.009,7.009,0,0,0,38.134,23a6.89,6.89,0,0,0,2.31-1.76,8.805,8.805,0,0,0,1.487-2.705,11.012,11.012,0,0,0,.538-3.487,5.837,5.837,0,0,0-.791-3.161,3,3,0,0,0-2.785-1.336H36.425L33.356,23.452Z" transform="translate(23.983 5.13)" fill="#fff" fill-rule="evenodd"/>
                    <path id="t_2_" d="M26.871,26.9a4.406,4.406,0,0,1-1.9-.358,2,2,0,0,1-.981-1.01A3.325,3.325,0,0,1,23.77,24a10.742,10.742,0,0,1,.316-1.89l1.9-8.148h7.088l1.3-5.41H27.25L28.9,1.712,22.251,2.787,18.042,21.1a23.853,23.853,0,0,0-.6,4.3,8.276,8.276,0,0,0,.6,3.618,5.224,5.224,0,0,0,2.31,2.477,9.367,9.367,0,0,0,4.588.913,16.423,16.423,0,0,0,3.576-.359c.095-.033.253-.065.348-.1l1.3-5.573a6.857,6.857,0,0,1-1.3.326,9.863,9.863,0,0,1-1.994.2Z" transform="translate(17.368 1.678)" fill="#fff" fill-rule="evenodd"/>
                    <path id="i_bottom_6_" d="M16.974,5.152,11.468,28.943H17.7L23.176,5.152Z" transform="translate(11.411 5.114)" fill="#fff" fill-rule="evenodd"/>
                    <path id="i_top_2_" d="M20.772,5.851l.949-4.139H15.488l-.949,4.139Z" transform="translate(14.479 1.678)" fill="#fff" fill-rule="evenodd"/>
                    <path id="b_2_" d="M14.61,10.315a7.752,7.752,0,0,1,3.481.75,6.988,6.988,0,0,1,2.437,1.988,8.962,8.962,0,0,1,1.424,2.933,13.133,13.133,0,0,1,.475,3.618,14.753,14.753,0,0,1-1.076,5.638,14.961,14.961,0,0,1-2.911,4.628,13.62,13.62,0,0,1-4.367,3.1A13.16,13.16,0,0,1,8.63,34.106c-.253,0-.7,0-1.329-.033a13.447,13.447,0,0,1-2.152-.2c-.823-.13-1.677-.293-2.563-.521a12.682,12.682,0,0,1-2.563-.945L7.269,1.059,13.756.016,11.193,11.13a8.3,8.3,0,0,1,1.645-.587,6.151,6.151,0,0,1,1.772-.228ZM9.168,28.761a5.16,5.16,0,0,0,2.753-.75,7.63,7.63,0,0,0,2.247-1.955,9.659,9.659,0,0,0,1.487-2.77,10.139,10.139,0,0,0,.538-3.226,6.576,6.576,0,0,0-.665-3.226,2.733,2.733,0,0,0-2.563-1.141,5.337,5.337,0,0,0-1.424.2,3.568,3.568,0,0,0-1.677.913L7.142,28.631a9.193,9.193,0,0,0,1.3.163,4.355,4.355,0,0,1,.728-.033Z" transform="translate(-0.022 -0.016)" fill="#fff" fill-rule="evenodd"/>
                  </g>
                </g>
              </g>
            </g>
          </g>
          <path id="Вычитание_83" data-name="Вычитание 83" d="M14172.131-8925.206a7.008,7.008,0,0,1-7-7l-.13-102.781a7.009,7.009,0,0,1,7-7l154.488-.011a7.009,7.009,0,0,1,7,7l.053,41.477-11.9,9.885,11.923,9.906.053,41.51a7.008,7.008,0,0,1-7,7Z" transform="translate(-14164.565 9043.576)" fill="url(#linear-gradient)"/>
          <g id="Pay_2" data-name="Pay 2" transform="translate(-728.566 -493.269)">
            <g id="Path_21410" data-name="Path 21410" transform="translate(932.567 545.179)">
              <g id="Сгруппировать_12216" data-name="Сгруппировать 12216" transform="translate(0.463 0.461)">
                <path id="Контур_21420" data-name="Контур 21420" d="M939.051,536.287h-6.234v16.059h3.852v-4.2h2.379a5.93,5.93,0,0,0,0-11.859Zm32.1,10.3,5.22-10.3H972.63l-3.234,6.377-3.234-6.377h-4.072l5.2,10.232v5.827h3.857v-5.758Zm-13.866,2.638,1.07,3.121h4.013l-6.04-16.059h-3.8l-6.02,16.059h3.933l1.072-3.121Zm-1.131-3.348-1.753-5.138-1.753,5.138Zm-17.336-1.307a2.353,2.353,0,0,0,.131-4.7h-2.281v4.7Z" transform="translate(-932.817 -536.287)" fill="#32363d" fill-rule="evenodd"/>
              </g>
              <g id="Сгруппировать_12217" data-name="Сгруппировать 12217">
                <path id="Контур_21421" data-name="Контур 21421" d="M971.825,553.023h-4.783v-6.18l-5.494-10.8h5.11l2.95,5.816,2.951-5.816h4.777l-5.51,10.873Zm-3.858-.926H970.9l.054-5.507,4.876-9.627h-2.7l-3.517,6.936-3.517-6.936h-3.034l4.909,9.768Zm-4.718.926h-5.012l-1.07-3.123h-5.105l-1.072,3.123h-4.933l6.366-16.985h4.439ZM958.9,552.1h3.013l-5.69-15.134h-3.156L947.394,552.1h2.934l1.072-3.123h6.43Zm-21.553.926h-4.777V536.038l6.7,0a6.392,6.392,0,0,1,0,12.783h-1.916Zm-3.852-.926h2.927v-4.2h2.841a5.466,5.466,0,0,0,0-10.932v0h-5.768Zm23.521-5.544h-4.8l2.4-7.036Zm-3.506-.925h2.212l-1.1-3.243Zm-14.408-.381c-.024,0-.05,0-.074,0h-2.606v-5.629h2.752a2.816,2.816,0,0,1-.072,5.631Zm-1.755-.927h1.7a1.887,1.887,0,0,0,1.942-1.836,1.892,1.892,0,0,0-1.836-1.942h-1.8Z" transform="translate(-932.567 -536.038)" fill="#32363d"/>
              </g>
            </g>
            <g id="Subtraction_29" data-name="Subtraction 29" transform="translate(957.757 525.296)">
              <path id="Контур_21422" data-name="Контур 21422" d="M949.906,579.03h0a2.873,2.873,0,0,1-2.036-.887,3.169,3.169,0,0,1-.892-2.256l3.6-8.824c.237-.031.483-.074.74-.126L947.7,575.8a2.751,2.751,0,0,0,.77,1.94,2.168,2.168,0,0,0,1.649.681,2.42,2.42,0,0,0,1.277-.381L981.621,554.9a2.8,2.8,0,0,0,.746-3.882,2.833,2.833,0,0,0-.746-.746l-30.356-23a2.356,2.356,0,0,0-1.268-.381,2.128,2.128,0,0,0-2.308,1.929,2.164,2.164,0,0,0,0,.379l3.569,9c-.224-.046-.466-.087-.72-.12l-3.56-8.835a3.054,3.054,0,0,1,2.932-3.147,2.769,2.769,0,0,1,1.481.446l30.843,23.322a3.256,3.256,0,0,1,0,5.405L951.4,578.591A2.785,2.785,0,0,1,949.906,579.03Z" transform="translate(-945.495 -524.616)" fill="#32363d"/>
              <path id="Контур_21423" data-name="Контур 21423" d="M950.58,581.19h-.013a4.392,4.392,0,0,1-3.084-1.338,4.638,4.638,0,0,1-1.3-3.31l.005-.278,4.026-9.871.848-.117c.205-.028.422-.065.646-.111l2.714-.553-4.537,11.111a1.268,1.268,0,0,0,.337.666.727.727,0,0,0,.535.228.953.953,0,0,0,.527-.148L981.4,554.4a1.37,1.37,0,0,0,.622-.889,1.309,1.309,0,0,0-.2-.987,1.384,1.384,0,0,0-.352-.352l-30.419-23.045a.956.956,0,0,0-.383-.081.789.789,0,0,0-.594.142.651.651,0,0,0-.226.4l4.478,11.286-2.686-.552c-.193-.039-.4-.074-.616-.1l-.855-.111-3.991-10.144a4.547,4.547,0,0,1,4.355-4.674,4.255,4.255,0,0,1,2.347.687l30.928,23.38a4.647,4.647,0,0,1,1.938,2.973,4.746,4.746,0,0,1-2,4.842l-30.775,23.274a4.322,4.322,0,0,1-2.377.738Z" transform="translate(-946.176 -525.296)" fill="#32363d" stroke="#32363d" stroke-width="0.5"/>
            </g>
          </g>
        </g>
      </g>
    </g>
    <g id="Сгруппировать_21180" data-name="Сгруппировать 21180" transform="translate(-2 -5.015)">
      <g id="Сгруппировать_21178" data-name="Сгруппировать 21178" transform="translate(-14225.713 9032.131)">
        <g id="Layer_x0020_1" transform="translate(72.474 76)">
          <g id="_3079379564224">
            <g id="Сгруппировать_2345" data-name="Сгруппировать 2345" transform="translate(121.814)">
              <path id="Контур_13736" data-name="Контур 13736" d="M17922.924,331.229a12.928,12.928,0,0,0,6.152-1.446,10.921,10.921,0,0,0,0-19.336,13.8,13.8,0,0,0-12.3,0,10.915,10.915,0,0,0,0,19.336A12.911,12.911,0,0,0,17922.924,331.229Zm0-3.9a6.794,6.794,0,0,1-3.475-.907,6.53,6.53,0,0,1-2.477-2.567,8.206,8.206,0,0,1,0-7.474,6.576,6.576,0,0,1,2.477-2.568,7.123,7.123,0,0,1,6.955,0,6.622,6.622,0,0,1,2.479,2.568,8.206,8.206,0,0,1,0,7.474,6.576,6.576,0,0,1-2.479,2.567A6.81,6.81,0,0,1,17922.924,327.325Z" transform="translate(-17908.861 -306.862)" fill="#fff" fill-rule="evenodd"/>
              <path id="Контур_13737" data-name="Контур 13737" d="M17613.92,22.229a12.913,12.913,0,0,0,6.148-1.446,10.677,10.677,0,0,0,5.777-9.668,10.657,10.657,0,0,0-5.777-9.668,13.779,13.779,0,0,0-12.291,0,10.644,10.644,0,0,0-5.779,9.668,10.664,10.664,0,0,0,5.779,9.668A12.89,12.89,0,0,0,17613.92,22.229Zm0-3.9a6.884,6.884,0,0,1-3.48-.907,6.566,6.566,0,0,1-2.467-2.568,7.627,7.627,0,0,1-.9-3.737,7.59,7.59,0,0,1,.9-3.737,6.52,6.52,0,0,1,2.467-2.568,7.127,7.127,0,0,1,6.957,0,6.491,6.491,0,0,1,2.477,2.568,7.629,7.629,0,0,1,.9,3.737,7.666,7.666,0,0,1-.9,3.737,6.536,6.536,0,0,1-2.477,2.568A6.865,6.865,0,0,1,17613.92,18.325Z" transform="translate(-17601.998 0)" fill="#506477" fill-rule="evenodd"/>
              <path id="Контур_13738" data-name="Контур 13738" d="M17767.93,177.222a12.973,12.973,0,0,0,6.145-1.439,10.914,10.914,0,0,0,0-19.343,13.851,13.851,0,0,0-12.3,0,10.926,10.926,0,0,0,0,19.343A12.982,12.982,0,0,0,17767.93,177.222Zm0-3.9a6.822,6.822,0,0,1-3.48-.914,6.65,6.65,0,0,1-2.48-2.561,8.236,8.236,0,0,1,0-7.481,6.651,6.651,0,0,1,2.48-2.561,7.08,7.08,0,0,1,6.957,0,6.613,6.613,0,0,1,2.477,2.561,8.236,8.236,0,0,1,0,7.481,6.613,6.613,0,0,1-2.477,2.561A6.818,6.818,0,0,1,17767.93,173.325Z" transform="translate(-17754.936 -153.927)" fill-rule="evenodd" fill="url(#linear-gradient-2)"/>
            </g>
            <g id="Сгруппировать_2346" data-name="Сгруппировать 2346" transform="translate(91.849 0.457)">
              <path id="Контур_13739" data-name="Контур 13739" d="M13288.573,396.315h5.842l-4.608-6.713.747-.36a7.144,7.144,0,0,0,3-2.616,7.251,7.251,0,0,0,1.046-3.924,7.343,7.343,0,0,0-1.122-4.076,7.217,7.217,0,0,0-3.2-2.664,12.337,12.337,0,0,0-5.066-.962H13272v21.315h7.147v-6.042h5.3Zm.956-13.613a3.768,3.768,0,0,1-1.26,3,5.246,5.246,0,0,1-3.454,1.031h-5.668v-8.09h5.668a5.191,5.191,0,0,1,3.46,1.052A3.82,3.82,0,0,1,13289.529,382.7Z" transform="translate(-13272 -372.862)" fill="#fff" fill-rule="evenodd"/>
              <path id="Контур_13740" data-name="Контур 13740" d="M13288.186,88.388l-.56-7.786.782-.367a7.055,7.055,0,0,0,3-2.609,7.31,7.31,0,0,0-3.274-10.664,12.368,12.368,0,0,0-5.072-.962H13272V89.454l1.072-1.066,3.931-7.114,7.059,1.066.388,1.073,3.4,4.976Zm-.795-14.685a3.76,3.76,0,0,1-1.26,2.99,5.25,5.25,0,0,1-3.453,1.038H13277V69.64h5.675a5.194,5.194,0,0,1,3.46,1.052A3.819,3.819,0,0,1,13287.391,73.7Z" transform="translate(-13272 -66)" fill="#506477" fill-rule="evenodd"/>
              <path id="Контур_13741" data-name="Контур 13741" d="M13442.115,241.322h5.153l-4.607-6.72.747-.36a7.152,7.152,0,0,0,3-2.616,7.241,7.241,0,0,0,1.043-3.924,7,7,0,0,0-4.325-6.741,12.316,12.316,0,0,0-5.064-.962H13427v21.322h5v-6.048h5.986Zm.268-13.62a3.792,3.792,0,0,1-1.251,3,5.265,5.265,0,0,1-3.454,1.031H13432v-8.083h5.675a5.177,5.177,0,0,1,3.454,1.052A3.816,3.816,0,0,1,13442.383,227.7Z" transform="translate(-13425.927 -218.934)" fill-rule="evenodd" fill="url(#linear-gradient-2)"/>
            </g>
            <g id="Сгруппировать_2347" data-name="Сгруппировать 2347" transform="translate(59.724 0.457)">
              <path id="Контур_13742" data-name="Контур 13742" d="M8652.919,83.64h-10.753l3.556-5.121h-8.171L8630,89.454h22.919Zm-14.29-6.706h8.09L8654.187,66h-22.056v5.813h9.993Z" transform="translate(-8630 -66)" fill="#fff" fill-rule="evenodd"/>
              <path id="Контур_13743" data-name="Контур 13743" d="M8652.919,83.64h-10.753l-2.194,1.073-1.508-2.561,5-2.567,2.256-1.066h-8.171L8630,89.454l2.255-1.066,19.593-3.675Zm-14.29-6.706,2.173-1.066,11.213-8.8L8654.187,66h-22.056v5.813l1.065-1.073,6.29-2.99,4.812,2.99-2.174,1.073Z" transform="translate(-8630 -66)" fill="#506477" fill-rule="evenodd"/>
              <path id="Контур_13744" data-name="Контур 13744" d="M8975.592,237.647h-11.875l3.493-5.128h-5.2l-6.006,8.8h19.592Zm-11.046-8.844h5.205l6.007-8.8h-18.816v3.675h11.1Z" transform="translate(-8953.743 -218.934)" fill-rule="evenodd" fill="url(#linear-gradient-2)"/>
            </g>
            <g id="Сгруппировать_2348" data-name="Сгруппировать 2348" transform="translate(30.312 0.457)">
              <path id="Контур_13745" data-name="Контур 13745" d="M4380,71.813h22.014V66H4380Zm0,17.64h22.014V83.64H4380Zm0-8.817h22.014v-5.82H4380Z" transform="translate(-4380 -66)" fill="#fff" fill-rule="evenodd"/>
              <path id="Контур_13746" data-name="Контур 13746" d="M4380,71.813l1.072-1.073,19.868-3.675L4402.014,66H4380Zm0,17.64,1.072-1.066,19.868-3.675,1.073-1.073H4380Zm0-8.817,1.072-1.073,19.868-3.675,1.073-1.073H4380Z" transform="translate(-4380 -66)" fill="#506477" fill-rule="evenodd"/>
              <path id="Контур_13747" data-name="Контур 13747" d="M4535,223.675h19.869V220H4535Zm0,17.647h19.869v-3.675H4535Zm0-8.824h19.869v-3.675H4535Z" transform="translate(-4533.927 -218.934)" fill-rule="evenodd" fill="url(#linear-gradient-2)"/>
            </g>
            <g id="Сгруппировать_2353" data-name="Сгруппировать 2353" transform="translate(0 0.457)">
              <g id="Сгруппировать_2351" data-name="Сгруппировать 2351" transform="translate(7.433 8.865)">
                <g id="Сгруппировать_2349" data-name="Сгруппировать 2349" transform="translate(0 8.775)">
                  <path id="Контур_13748" data-name="Контур 13748" d="M1074,2615v5.813h7.149V2615Z" transform="translate(-1074 -2615)" fill="#fff" fill-rule="evenodd"/>
                  <path id="Контур_13749" data-name="Контур 13749" d="M1074,2615v5.813l1.073-1.066,5-3.675,1.073-1.073Z" transform="translate(-1074 -2615)" fill="#003d90" fill-rule="evenodd"/>
                </g>
                <g id="Сгруппировать_2350" data-name="Сгруппировать 2350">
                  <path id="Контур_13751" data-name="Контур 13751" d="M1074,1347v5.813h7.149V1347Z" transform="translate(-1074 -1347)" fill="#fff" fill-rule="evenodd"/>
                  <path id="Контур_13752" data-name="Контур 13752" d="M1074,1347v5.813l1.073-1.066,5-3.675,1.073-1.073Z" transform="translate(-1074 -1347)" fill="#2997ff" fill-rule="evenodd"/>
                </g>
              </g>
              <g id="Сгруппировать_2352" data-name="Сгруппировать 2352">
                <path id="Контур_13754" data-name="Контур 13754" d="M22.014,71.813V66H0v5.813Z" transform="translate(0 -66)" fill="#fff" fill-rule="evenodd"/>
                <path id="Контур_13755" data-name="Контур 13755" d="M20.941,67.066,22.014,66H0v5.813l1.073-1.073Z" transform="translate(0 -66)" fill="#506477" fill-rule="evenodd"/>
              </g>
            </g>
          </g>
        </g>
        <path id="Объединение_192" data-name="Объединение 192" d="M7.418,21.287V17.634h5.01v3.653Zm0-8.774V8.86h5.01v3.653ZM0,3.644V0H19.868V3.644Z" transform="translate(73.551 77.548)" fill="url(#linear-gradient-2)"/>
      </g>
      <text id="Pay_with" data-name="Pay with" transform="translate(-14129 9094.484)" fill="#415067" font-size="26" font-family="SFUIDisplay-Regular, SF UI Display" letter-spacing="0em"><tspan x="0" y="0">Pay with</tspan></text>
    </g>
  </g>
</svg>
